<svg id="Layer_1" data-name="Layer 1" xmlns="http://www.w3.org/2000/svg" viewBox="0 0 1041 153.25"><defs><style>.cls-1{fill:#1294ff;}</style></defs><path class="cls-1" d="M59.93,153.25H1.71l-.05-37.32H59.93a39.31,39.31,0,1,0,0-78.61V0a76.63,76.63,0,1,1,0,153.25Z"/><path class="cls-1" d="M59.78,95.28H1.71V0H39V58H59.78A18.66,18.66,0,0,1,78.44,76.62h0A18.66,18.66,0,0,1,59.78,95.28Z"/><path d="M200.27,113h47.91v29.51H169.62V8.41h30.65Z"/><path d="M337.85,130.56q-14.76,14.67-36,14.66t-36-14.66q-14.76-14.65-14.76-35.92t14.76-35.93q14.74-14.66,36-14.66t36,14.66q14.76,14.66,14.76,35.93T337.85,130.56Zm-51.73-19.64a22.66,22.66,0,0,0,31.42,0q6.33-6.32,6.32-16.28t-6.32-16.29a22.69,22.69,0,0,0-31.42,0q-6.33,6.32-6.33,16.29T286.12,110.92Z"/><path d="M411.05,145.22q-21.84,0-36.31-14.56t-14.47-36q0-21.47,14.47-36t36.31-14.56a49.82,49.82,0,0,1,25.39,6.71,47.51,47.51,0,0,1,17.91,17.82l-25.1,14.56q-5.17-10.73-18.58-10.73a20.88,20.88,0,0,0-15.53,6.23q-6.13,6.23-6.13,16t6.13,16a20.87,20.87,0,0,0,15.53,6.22q13.59,0,18.58-10.73l25.1,14.37a47.21,47.21,0,0,1-17.82,18A49.64,49.64,0,0,1,411.05,145.22Z"/><path d="M542.11,130.56q-14.76,14.67-36,14.66t-36-14.66q-14.74-14.65-14.75-35.92t14.75-35.93q14.76-14.66,36-14.66t36,14.66q14.76,14.66,14.75,35.93T542.11,130.56Zm-51.74-19.64a22.67,22.67,0,0,0,31.43,0q6.32-6.32,6.32-16.28T521.8,78.35a22.7,22.7,0,0,0-31.43,0q-6.31,6.32-6.32,16.29T490.37,110.92Z"/><path d="M625.84,8.41q27.4,0,45.32,19.45t17.92,47.61q0,28.17-17.92,47.62t-45.32,19.45H574.11V8.41Zm0,121.48q22,0,36.12-15.71t14.09-38.71q0-23-14.09-38.7T625.84,21.06H587.52V129.89Z"/><path d="M719,62.64q8.82-17.45,30.28-17.44V57.46q-13,0-21.65,7.67T719,89.27v53.27H706.32V46.73H719Z"/><path d="M775.49,23.74a9.2,9.2,0,0,1-15.71-6.52,8.86,8.86,0,0,1,2.68-6.51,9.26,9.26,0,0,1,13,0,8.86,8.86,0,0,1,2.68,6.51A8.87,8.87,0,0,1,775.49,23.74Zm-12.84,118.8V46.73H775.3v95.81Z"/><path d="M867.27,46.73h13.41L841.4,142.54H826.08L786.79,46.73h13.42L833.74,129Z"/><path d="M932.61,44.43q21.27,0,34.4,15A52.28,52.28,0,0,1,980.13,95q0,2.12-.38,5.94H895.63q1.92,14.57,12.36,23.09t25.77,8.53q10.92,0,18.88-4.51a30.36,30.36,0,0,0,12-11.78l11.12,6.51a45.5,45.5,0,0,1-17.25,16.1,51.3,51.3,0,0,1-24.91,5.94q-22.61,0-36.79-14.18t-14.18-36q0-21.47,14-35.84T932.61,44.43Zm0,12.27q-14.94,0-25,8.91t-12,23.09H967.1q-1.9-15.14-11.69-23.57A33.81,33.81,0,0,0,932.61,56.7Z"/><path d="M1009.07,62.64q8.8-17.45,30.27-17.44V57.46q-13,0-21.65,7.67t-8.62,24.14v53.27H996.42V46.73h12.65Z"/></svg>